<svg width="33" height="33" viewBox="0 0 33 33" fill="none" xmlns="http://www.w3.org/2000/svg">
<path d="M28.1884 10.798L19.4551 3.81136C17.7484 2.45136 15.0817 2.43803 13.3884 3.79803L4.65507 10.798C3.40174 11.798 2.64174 13.798 2.9084 15.3714L4.5884 25.4247C4.97507 27.678 7.0684 29.4514 9.3484 29.4514H23.4817C25.7351 29.4514 27.8684 27.638 28.2551 25.4114L29.9351 15.358C30.1751 13.798 29.4151 11.798 28.1884 10.798ZM17.4151 24.118C17.4151 24.6647 16.9617 25.118 16.4151 25.118C15.8684 25.118 15.4151 24.6647 15.4151 24.118V20.118C15.4151 19.5714 15.8684 19.118 16.4151 19.118C16.9617 19.118 17.4151 19.5714 17.4151 20.118V24.118Z" fill="#DBDFEA"/>
</svg>
