<svg width="52" height="52" viewBox="0 0 52 52" fill="none" xmlns="http://www.w3.org/2000/svg">
<rect width="52" height="52" rx="26" fill="white" fill-opacity="0.05"/>
<g clip-path="url(#clip0_279_2015)">
<path d="M2.25171 22.5214C2.25171 22.4936 2.25171 22.4379 2.27952 22.4101C2.25171 22.4379 2.25171 22.4658 2.25171 22.5214Z" fill="#FFFBF8"/>
<path d="M2.14355 23.3315C2.14355 23.3037 2.14355 23.2759 2.14355 23.248C2.17136 23.2759 2.14355 23.3037 2.14355 23.3315Z" fill="#FFFBF8"/>
<path d="M2.06321 24.2441V24.2163C2.06321 24.2163 2.06321 24.2163 2.06321 24.2441C2.06321 24.3275 2.0354 24.4388 2.0354 24.5222C2.06321 24.411 2.06321 24.3275 2.06321 24.2441Z" fill="#FFFBF8"/>
<path d="M14.5417 34.0649C14.5417 34.0928 14.5696 34.1206 14.5696 34.1206C14.5417 34.1206 14.5417 34.0928 14.5417 34.0649Z" fill="#FFFBF8"/>
<path d="M18.1614 12.4534C20.2193 10.2564 22.7222 8.53219 25.5588 7.4476C26.4209 7.11388 27.283 6.83578 28.173 6.64111C27.283 6.86359 26.4209 7.11388 25.5588 7.4476C22.6944 8.56 20.1915 10.2564 18.1614 12.4534Z" fill="#FFFBF8"/>
<path d="M22.4188 43.0159C20.055 41.5976 17.997 39.6787 16.384 37.3705C15.8 36.5362 15.2995 35.6741 14.8545 34.7563C15.2995 35.6463 15.8 36.5362 16.384 37.3705C17.997 39.6509 20.055 41.5698 22.4188 43.0159Z" fill="#FFFBF8"/>
<path d="M2.27737 22.3261V22.3818C2.27737 22.4096 2.27737 22.4652 2.24956 22.493V22.5208C2.24956 22.5486 2.24956 22.5764 2.24956 22.6042V22.6599V22.6877V22.7155V22.7433C2.24956 22.8267 2.22175 22.9101 2.22175 22.9936C2.22175 23.077 2.19394 23.1326 2.19394 23.2161C2.19394 23.2439 2.19394 23.2717 2.19394 23.2995C2.19394 23.3829 2.16613 23.4663 2.16613 23.5498C2.16613 23.6054 2.16613 23.6888 2.13832 23.7444V23.8001C2.13832 23.8279 2.13832 23.8557 2.13832 23.8835C2.13832 23.9113 2.13832 23.9391 2.13832 23.9669C2.13832 23.9947 2.13832 23.9947 2.13832 24.0225C2.13832 24.0504 2.13832 24.0504 2.13832 24.0782C2.13832 24.106 2.13832 24.1338 2.13832 24.1616V24.1894C2.13832 24.2728 2.11051 24.3841 2.11051 24.4675C2.11051 24.5231 2.11051 24.5509 2.11051 24.6066C2.11051 24.6622 2.11051 24.69 2.11051 24.7456C2.11051 24.7456 2.11051 24.7456 2.11051 24.7734V24.8012V24.829V24.8568C2.11051 24.9125 2.11051 24.9681 2.11051 25.0237C2.11051 25.0515 2.11051 25.0793 2.11051 25.0793C2.11051 25.1906 2.11051 25.274 2.11051 25.3574C2.11051 25.3852 2.11051 25.3852 2.11051 25.413V25.4409C2.11051 25.5243 2.11051 25.6077 2.11051 25.6633V25.719V25.7468V25.8302C1.99927 25.9136 1.99927 25.9136 1.99927 25.9414C1.99927 25.9692 1.99927 25.9692 1.99927 25.9971C1.99927 26.0249 1.99927 26.0249 1.99927 26.0527C1.99927 26.0805 1.99927 26.1083 1.99927 26.1083V26.1917V26.2473C2.05489 30.8082 3.89035 35.0909 7.14411 38.2891C10.3979 41.4872 14.7084 43.267 19.2971 43.267C20.0201 43.267 20.7432 43.2114 21.4662 43.128C21.8 43.1002 22.1059 43.0446 22.4396 42.9889C20.0757 41.5706 18.0178 39.6517 16.4048 37.3435C15.8208 36.5092 15.3202 35.6471 14.8753 34.7294C14.764 34.5347 14.6806 34.3122 14.5972 34.1176C14.5972 34.0898 14.5694 34.0619 14.5694 34.0619C13.457 31.5312 12.873 28.8059 12.873 25.9971C12.873 21.909 14.0966 17.9878 16.4326 14.6228C16.961 13.8441 17.545 13.121 18.1847 12.4536C20.2426 10.2566 22.7455 8.53239 25.5821 7.4478C26.4442 7.11408 27.3063 6.83598 28.1963 6.64131C29.6702 6.27978 31.1997 6.11292 32.7571 6.11292C36.3724 6.11292 39.8486 7.08627 42.8799 8.86611C42.8521 8.8383 42.8243 8.81049 42.7965 8.78268C42.7687 8.75487 42.7131 8.69925 42.6853 8.67144L42.6574 8.64363C42.6296 8.61582 42.574 8.58801 42.5462 8.53239C42.5184 8.50458 42.4628 8.47677 42.435 8.42115C42.435 8.42115 42.435 8.42115 42.4072 8.39334C42.3515 8.36553 42.3237 8.30991 42.2681 8.2821L42.2125 8.22648L42.1847 8.19867C42.1291 8.14305 42.0734 8.08743 41.99 8.03181C41.9066 7.97619 41.851 7.92057 41.7953 7.86495C41.7675 7.83714 41.7397 7.83714 41.7397 7.80933C41.6841 7.78152 41.6563 7.7259 41.6007 7.69809L41.5172 7.61466L41.4616 7.55904L41.4338 7.53123L41.406 7.50342C41.3504 7.4478 41.2948 7.41999 41.2391 7.36437C41.2113 7.33656 41.1557 7.30875 41.1279 7.25313C40.9888 7.14189 40.8498 7.03065 40.7386 6.94722C40.7107 6.91941 40.6551 6.8916 40.6273 6.86379L40.5717 6.83598L40.5439 6.80817C40.5439 6.80817 40.5439 6.80817 40.5161 6.80817L40.4326 6.75255L40.4048 6.72474L40.2936 6.64131L40.2658 6.6135C40.238 6.58569 40.238 6.58569 40.2102 6.55788L40.1824 6.53007C40.1545 6.50226 40.0989 6.47445 40.0711 6.44664L40.0433 6.41883C39.9321 6.3354 39.8486 6.27978 39.7374 6.19635C39.6818 6.16854 39.654 6.14073 39.5983 6.11292L39.5705 6.08511C39.5149 6.02949 39.4315 6.00168 39.3759 5.94606C39.3481 5.94606 39.3481 5.91825 39.3202 5.91825C39.2646 5.89044 39.209 5.86263 39.1812 5.83482C39.0978 5.7792 39.0421 5.75139 38.9587 5.69577C38.8753 5.64015 38.8197 5.61234 38.7362 5.55672L38.625 5.47329C38.5972 5.47329 38.5972 5.44548 38.5694 5.44548C38.5416 5.44548 38.5138 5.41767 38.4859 5.41767C38.4581 5.41767 38.4581 5.38986 38.4303 5.38986C38.3747 5.36205 38.3191 5.33424 38.2635 5.30643L38.2357 5.27862C38.2078 5.27862 38.2078 5.25081 38.18 5.25081C38.1244 5.223 38.0688 5.19519 38.041 5.16738C38.041 5.16738 38.041 5.16738 38.0132 5.16738C37.6795 4.97271 37.3179 4.80586 36.9842 4.61119H36.9564C36.873 4.58338 36.7895 4.52776 36.7339 4.49995L36.2055 4.27747C36.2055 4.27747 36.2055 4.27747 36.1777 4.27747C35.9274 4.16623 35.7049 4.05499 35.4825 3.97156C35.4268 3.94375 35.3712 3.91594 35.3156 3.91594H35.2878H35.26L35.1766 3.88813C35.1488 3.88813 35.1209 3.86032 35.0653 3.86032C35.0375 3.86032 35.0375 3.86032 35.0097 3.83251C34.7872 3.74908 34.5926 3.66565 34.4257 3.61003L34.3144 3.58222H34.2866L34.1754 3.55441C33.8695 3.44317 33.5914 3.33193 33.2577 3.2485C33.2577 3.2485 33.2577 3.2485 33.2299 3.2485C33.1742 3.22069 33.1186 3.22069 33.063 3.19288C33.0074 3.16507 32.9518 3.16507 32.8961 3.13726C32.8683 3.13726 32.8127 3.10945 32.7849 3.10945C32.6459 3.08164 32.5346 3.02602 32.3956 2.99821C32.3678 2.99821 32.3678 2.99821 32.3399 2.99821C32.3399 2.83135 32.3121 2.83135 32.2843 2.83135H32.2565H32.2287C31.9784 2.77573 31.7281 2.6923 31.45 2.63668C31.311 2.60887 31.1441 2.58106 31.0051 2.52544C30.7548 2.46982 30.4767 2.4142 30.2264 2.35858C30.143 2.33077 30.0317 2.33077 29.9483 2.30296C29.8649 2.27515 29.7536 2.27515 29.6702 2.24734C29.6146 2.24734 29.5868 2.24734 29.5311 2.21953C29.4755 2.21953 29.4199 2.19172 29.3643 2.19172C29.0862 2.16391 28.8081 2.10829 28.53 2.08048C28.0016 2.02486 27.4454 1.99705 26.917 1.96924C26.6111 1.99705 26.3052 1.99705 25.9993 1.99705C25.4987 1.99705 24.9703 2.02486 24.4697 2.05267C24.4141 2.05267 24.3585 2.05267 24.3029 2.05267C23.7467 2.08048 23.1905 2.1361 22.6343 2.21953C22.523 2.24734 22.4396 2.24734 22.3284 2.27515L2.27737 22.3261Z" fill="url(#paint0_linear_279_2015)"/>
<path d="M49.7254 29.6406V29.6128C49.7254 29.585 49.7254 29.5572 49.7532 29.5016V29.4738C49.7532 29.4182 49.781 29.3903 49.781 29.3347V29.3069V29.2791C49.781 29.2513 49.781 29.2513 49.781 29.2513L49.8088 29.1122L49.8366 29.001C49.8366 28.8898 49.8644 28.8063 49.8644 28.7229C49.8644 28.6395 49.8923 28.556 49.8923 28.4726C49.8923 28.3892 49.9201 28.3336 49.9201 28.2779V28.2223C49.9201 28.1667 49.9201 28.1389 49.9201 28.0833V28.0555V28.0277C49.9201 27.972 49.9201 27.9164 49.9479 27.833V27.8052C49.9479 27.7217 49.9757 27.6383 49.9757 27.5271C49.9757 27.4436 49.9757 27.3324 50.0035 27.249V27.2212V27.1934V27.1655C50.0035 27.0821 50.0035 26.9987 50.0035 26.9431C50.0035 26.8318 50.0035 26.7484 50.0035 26.6372V26.5815C50.0035 26.4981 50.0035 26.4425 50.0035 26.3591V26.1922C50.0035 26.1366 50.0035 26.081 50.0035 25.9975C50.0035 25.9419 50.0035 25.8585 50.0035 25.8029V25.7472C49.9479 21.1864 48.1124 16.9037 44.8587 13.7055C41.6049 10.5074 37.2943 8.72754 32.7057 8.72754C31.6489 8.72754 30.5921 8.81097 29.591 9.00564C31.9548 10.4239 34.0128 12.3428 35.6257 14.6511C37.9618 17.9883 39.1854 21.9095 39.1854 26.0253C39.1854 30.1134 37.9618 34.0346 35.6257 37.3996C33.3453 40.6534 30.175 43.1563 26.4763 44.5746C24.1958 45.4645 21.7764 45.9095 19.3013 45.9095C15.686 45.9095 12.2098 44.9361 9.17847 43.1563H9.20628C9.23409 43.1841 9.23409 43.1841 9.2619 43.2119L9.31752 43.2675C9.34533 43.2953 9.40095 43.3509 9.42876 43.3788C9.48438 43.4344 9.56781 43.5178 9.65124 43.5734C9.70686 43.629 9.76248 43.6569 9.79029 43.7125C9.87372 43.7959 9.95715 43.8793 10.0684 43.9628C10.124 44.0184 10.1796 44.074 10.2352 44.1296L10.2631 44.1574L10.4299 44.2965L10.4577 44.3243C10.5133 44.3521 10.5412 44.4077 10.5968 44.4355L10.6246 44.4633L10.6524 44.4912C10.6802 44.519 10.7358 44.5746 10.7914 44.6024H10.8193H10.8471C10.8749 44.6302 10.9305 44.658 10.9583 44.6858C11.0974 44.7971 11.2086 44.8805 11.3476 44.9917C11.3755 45.0195 11.4033 45.0474 11.4311 45.0474C11.4589 45.0752 11.4867 45.103 11.5423 45.1308C11.5701 45.1586 11.5701 45.1586 11.5979 45.1586L11.6257 45.1864C11.6814 45.2142 11.737 45.2698 11.7926 45.2976L11.8482 45.3255C11.876 45.3533 11.9038 45.3533 11.9317 45.3811C11.9595 45.4089 12.0151 45.4367 12.0429 45.4645L12.0985 45.4923C12.2098 45.5757 12.2932 45.6314 12.4044 45.7148C12.46 45.7426 12.4879 45.7704 12.5435 45.7982L12.5713 45.826L12.6825 45.9095L12.7938 45.9929C12.8494 46.0207 12.905 46.0763 12.9884 46.1041C13.0441 46.1319 13.1275 46.1876 13.1831 46.2154H13.4056L13.6837 46.4657C13.7115 46.4935 13.7671 46.5213 13.8227 46.5491C13.9062 46.6047 13.9896 46.6603 14.073 46.6881C14.1286 46.716 14.2121 46.7716 14.2677 46.7994C14.6292 46.9941 14.9907 47.1887 15.3523 47.3556C15.4357 47.3834 15.5191 47.439 15.6026 47.4668C15.6026 47.4668 15.6304 47.4668 15.6304 47.4946C15.7138 47.5224 15.7694 47.5781 15.8529 47.6059C16.0753 47.7171 16.2978 47.8284 16.5481 47.9118C16.6037 47.9396 16.6593 47.9674 16.715 47.9952C16.7428 47.9952 16.7428 48.023 16.7706 48.023C16.854 48.0508 16.9096 48.0786 16.9931 48.1065C17.1877 48.1899 17.3824 48.2455 17.5771 48.3289C17.6327 48.3567 17.7161 48.3845 17.7717 48.4124C18.0777 48.5236 18.3836 48.6348 18.6617 48.7183C18.7173 48.7461 18.7729 48.7461 18.8285 48.7739C18.912 48.8017 18.9954 48.8295 19.1066 48.8573L19.1901 48.8851C19.3013 48.9129 19.4125 48.9408 19.496 48.9686C19.5516 48.9964 19.6072 48.9964 19.6628 49.0242C20.3303 49.191 20.9977 49.3579 21.6651 49.4691C21.7486 49.4969 21.832 49.4969 21.9432 49.5248C22.0545 49.5526 22.1379 49.5526 22.2213 49.5804C22.3048 49.6082 22.416 49.6082 22.4994 49.6082C23.6118 49.775 24.7242 49.8307 25.8644 49.8307C26.9768 49.8307 28.1171 49.7472 29.2295 49.6082H29.2573C29.3407 49.6082 29.4241 49.5804 29.5354 49.5804L49.5863 29.5294C49.7254 29.6406 49.7254 29.6406 49.7254 29.6406Z" fill="url(#paint1_linear_279_2015)"/>
</g>
<defs>
<linearGradient id="paint0_linear_279_2015" x1="19.9993" y1="-0.00341831" x2="14.6659" y2="36.6633" gradientUnits="userSpaceOnUse">
<stop stop-color="#8204FF"/>
<stop offset="1" stop-color="#FF7952"/>
</linearGradient>
<linearGradient id="paint1_linear_279_2015" x1="34.0033" y1="9.99707" x2="16.0033" y2="49.9971" gradientUnits="userSpaceOnUse">
<stop stop-color="#FF7952"/>
<stop offset="1" stop-color="#8204FF"/>
</linearGradient>
<clipPath id="clip0_279_2015">
<rect width="48" height="48" fill="white" transform="translate(2 2)"/>
</clipPath>
</defs>
</svg>
