<svg width="33" height="33" viewBox="0 0 33 33" fill="none" xmlns="http://www.w3.org/2000/svg">
<path d="M27.215 12.3273C24.8017 12.3273 23.815 10.6206 25.015 8.52727C25.7083 7.31393 25.295 5.76727 24.0817 5.07393L21.775 3.75393C20.7217 3.12727 19.3617 3.5006 18.735 4.55393L18.5883 4.80727C17.3883 6.9006 15.415 6.9006 14.2017 4.80727L14.055 4.55393C13.455 3.5006 12.095 3.12727 11.0417 3.75393L8.735 5.07393C7.52166 5.76727 7.10833 7.32727 7.80167 8.5406C9.015 10.6206 8.02833 12.3273 5.615 12.3273C4.22833 12.3273 3.08167 13.4606 3.08167 14.8606V17.2073C3.08167 18.5939 4.215 19.7406 5.615 19.7406C8.02833 19.7406 9.015 21.4473 7.80167 23.5406C7.10833 24.7539 7.52166 26.3006 8.735 26.9939L11.0417 28.3139C12.095 28.9406 13.455 28.5673 14.0817 27.5139L14.2283 27.2606C15.4283 25.1673 17.4017 25.1673 18.615 27.2606L18.7617 27.5139C19.3883 28.5673 20.7483 28.9406 21.8017 28.3139L24.1083 26.9939C25.3217 26.3006 25.735 24.7406 25.0417 23.5406C23.8283 21.4473 24.815 19.7406 27.2283 19.7406C28.615 19.7406 29.7617 18.6073 29.7617 17.2073V14.8606C29.7483 13.4739 28.615 12.3273 27.215 12.3273ZM16.415 20.3673C14.0283 20.3673 12.0817 18.4206 12.0817 16.0339C12.0817 13.6473 14.0283 11.7006 16.415 11.7006C18.8017 11.7006 20.7483 13.6473 20.7483 16.0339C20.7483 18.4206 18.8017 20.3673 16.415 20.3673Z" fill="#DBDFEA"/>
</svg>
