<svg width="39" height="39" viewBox="0 0 39 39" fill="none" xmlns="http://www.w3.org/2000/svg">
<path d="M31.3058 10.2125L21.9008 4.7817C20.365 3.89503 18.465 3.89503 16.9133 4.7817L7.52416 10.2125C5.98833 11.0992 5.03833 12.7459 5.03833 14.535V25.365C5.03833 27.1384 5.98833 28.785 7.52416 29.6875L16.9292 35.1184C18.465 36.005 20.365 36.005 21.9167 35.1184L31.3217 29.6875C32.8575 28.8009 33.8075 27.1542 33.8075 25.365V14.535C33.7917 12.7459 32.8417 11.115 31.3058 10.2125ZM19.415 12.5717C21.4575 12.5717 23.1042 14.2184 23.1042 16.2609C23.1042 18.3034 21.4575 19.95 19.415 19.95C17.3725 19.95 15.7258 18.3034 15.7258 16.2609C15.7258 14.2342 17.3725 12.5717 19.415 12.5717ZM23.6583 27.3284H15.1717C13.8892 27.3284 13.145 25.9034 13.8575 24.8425C14.9342 23.2434 17.0242 22.1667 19.415 22.1667C21.8058 22.1667 23.8958 23.2434 24.9725 24.8425C25.685 25.8875 24.925 27.3284 23.6583 27.3284Z" fill="#DBDFEA"/>
</svg>
