<svg width="33" height="33" viewBox="0 0 33 33" fill="none" xmlns="http://www.w3.org/2000/svg">
<path d="M10.0685 2.78467H7.53512C4.61512 2.78467 3.08179 4.318 3.08179 7.22467V9.758C3.08179 12.6647 4.61512 14.198 7.52179 14.198H10.0551C12.9618 14.198 14.4951 12.6647 14.4951 9.758V7.22467C14.5085 4.318 12.9751 2.78467 10.0685 2.78467Z" fill="#DBDFEA"/>
<path d="M25.3083 2.78467H22.775C19.8683 2.78467 18.335 4.318 18.335 7.22467V9.758C18.335 12.6647 19.8683 14.198 22.775 14.198H25.3083C28.215 14.198 29.7483 12.6647 29.7483 9.758V7.22467C29.7483 4.318 28.215 2.78467 25.3083 2.78467Z" fill="#DBDFEA"/>
<path d="M25.3083 18.0244H22.775C19.8683 18.0244 18.335 19.5577 18.335 22.4644V24.9977C18.335 27.9044 19.8683 29.4377 22.775 29.4377H25.3083C28.215 29.4377 29.7483 27.9044 29.7483 24.9977V22.4644C29.7483 19.5577 28.215 18.0244 25.3083 18.0244Z" fill="#DBDFEA"/>
<path d="M10.0685 18.0244H7.53512C4.61512 18.0244 3.08179 19.5577 3.08179 22.4644V24.9977C3.08179 27.9177 4.61512 29.4511 7.52179 29.4511H10.0551C12.9618 29.4511 14.4951 27.9177 14.4951 25.0111V22.4777C14.5085 19.5577 12.9751 18.0244 10.0685 18.0244Z" fill="#DBDFEA"/>
</svg>
