<svg width="33" height="33" viewBox="0 0 33 33" fill="none" xmlns="http://www.w3.org/2000/svg">
<path d="M12.4151 2.70068C8.92179 2.70068 6.08179 5.54068 6.08179 9.03402C6.08179 12.4607 8.76179 15.234 12.2551 15.354C12.3618 15.3407 12.4685 15.3407 12.5485 15.354C12.5751 15.354 12.5885 15.354 12.6151 15.354C12.6285 15.354 12.6285 15.354 12.6418 15.354C16.0551 15.234 18.7351 12.4607 18.7485 9.03402C18.7485 5.54068 15.9085 2.70068 12.4151 2.70068Z" fill="#DBDFEA"/>
<path d="M19.1883 18.9005C15.4683 16.4205 9.40165 16.4205 5.65499 18.9005C3.96165 20.0339 3.02832 21.5672 3.02832 23.2072C3.02832 24.8472 3.96165 26.3672 5.64165 27.4872C7.50832 28.7405 9.96165 29.3672 12.415 29.3672C14.8683 29.3672 17.3217 28.7405 19.1883 27.4872C20.8683 26.3539 21.8017 24.8339 21.8017 23.1805C21.7883 21.5405 20.8683 20.0205 19.1883 18.9005Z" fill="#DBDFEA"/>
<path d="M27.0685 9.82082C27.2818 12.4075 25.4419 14.6741 22.8952 14.9808C22.8819 14.9808 22.8818 14.9808 22.8685 14.9808H22.8285C22.7485 14.9808 22.6685 14.9808 22.6018 15.0075C21.3085 15.0741 20.1218 14.6608 19.2285 13.9008C20.6018 12.6741 21.3885 10.8341 21.2285 8.83415C21.1352 7.75415 20.7618 6.76748 20.2018 5.92748C20.7085 5.67415 21.2952 5.51415 21.8952 5.46082C24.5085 5.23415 26.8418 7.18082 27.0685 9.82082Z" fill="#DBDFEA"/>
<path d="M29.735 22.1538C29.6284 23.4471 28.8017 24.5671 27.415 25.3271C26.0817 26.0605 24.4017 26.4071 22.735 26.3671C23.695 25.5005 24.255 24.4205 24.3617 23.2738C24.495 21.6205 23.7084 20.0338 22.135 18.7671C21.2417 18.0605 20.2017 17.5005 19.0684 17.0871C22.015 16.2338 25.7217 16.8071 28.0017 18.6471C29.2284 19.6338 29.855 20.8738 29.735 22.1538Z" fill="#DBDFEA"/>
</svg>
